# xmcd CD database file
#
# Track frame offsets:
#	150
#	12370
#	25509
#	38174
#	50688
#	64016
#	76238
#	89243
#	104176
#	116497
#	128586
#	142234
#	156484
#	168759
#
# Disc length: 2381 seconds
#
# Revision: 0
# Processed by: cddbd v1.5.1PL0 Copyright (c) Steve Scherf et al.
# Submitted via: ACXtractor (MTCDDB.DLL V2003.07.15)
#
DISCID=bf094b0e
DTITLE=Dinah Washington - Dinah Washington (Cocktail Hour)
DYEAR=2000
DGENRE=Blues
TTITLE0=A Slick Chick
TTITLE1=Postman Blues
TTITLE2=I Can't Get Started
TTITLE3=Joy Juice
TTITLE4=When A Woman Loves A Man
TTITLE5=Oo Wee Walkie Talkie
TTITLE6=That's Why A Woman Loves A Heel
TTITLE7=I Want To Be Loved
TTITLE8=You Can Depend On Me
TTITLE9=Since I Fell For You
TTITLE10=Stairway To The Stars
TTITLE11=I Sold My Heart To The Junkman
TTITLE12=It's Too Soon To Know
TTITLE13=Fast Movin' Mama
EXTD=ID3G:   0 YEAR: 2000
EXTT0=
EXTT1=
EXTT2=
EXTT3=
EXTT4=
EXTT5=
EXTT6=
EXTT7=
EXTT8=
EXTT9=
EXTT10=
EXTT11=
EXTT12=
EXTT13=
PLAYORDER=
